<?xml version="1.0" encoding="UTF-8"?>
<svg width="24px" height="24px" viewBox="0 0 24 24" version="1.1" xmlns="http://www.w3.org/2000/svg" xmlns:xlink="http://www.w3.org/1999/xlink">
    <!-- Generator: Sketch 47.1 (45422) - http://www.bohemiancoding.com/sketch -->
    <title>service radio btn</title>
    <desc>Created with Sketch.</desc>
    <defs>
        <path d="M587.048224,33.97522 L600.046092,33.97522 C602.807526,33.97522 605.046074,36.213794 605.046074,38.975202 L605.046074,51.93966 C605.046074,54.701068 602.807526,56.939642 600.046092,56.939642 L587.048224,56.939642 C584.28679,56.939642 582.048242,54.701068 582.048242,51.93966 L582.048242,38.975202 C582.048242,36.213794 584.28679,33.97522 587.048224,33.97522 Z" id="path-1"></path>
    </defs>
    <g id="Page-1" stroke="none" stroke-width="1" fill="none" fill-rule="evenodd">
        <g id="Artboard" transform="translate(-663.000000, -307.000000)">
            <g id="RESULTS-FILTER-BAR" transform="translate(81.000000, 274.000000)">
                <g id="service-radio-btn">
                    <use fill-opacity="0" fill="#000000" fill-rule="evenodd" xlink:href="#path-1"></use>
                    <path stroke="#216DDF" stroke-width="8" d="M587.048224,37.97522 C586.495941,37.97522 586.048242,38.4229208 586.048242,38.975202 L586.048242,51.93966 C586.048242,52.4919412 586.495941,52.939642 587.048224,52.939642 L600.046092,52.939642 C600.598375,52.939642 601.046074,52.4919412 601.046074,51.93966 L601.046074,38.975202 C601.046074,38.4229208 600.598375,37.97522 600.046092,37.97522 L587.048224,37.97522 Z"></path>
                </g>
            </g>
        </g>
    </g>
</svg>